<svg width="48" height="30" viewBox="0 0 48 30" fill="none" xmlns="http://www.w3.org/2000/svg">
<path fill-rule="evenodd" clip-rule="evenodd" d="M38.2601 17.9951L30.8164 24.879C29.6308 26.0518 29.6308 27.9476 30.8164 29.1204C32.005 30.2932 33.929 30.2932 35.1146 29.1204L46.6673 18.181C47.5258 17.3292 48 16.2043 48 14.9985C48 13.7957 47.5258 12.6649 46.6673 11.819L35.1146 0.879618C33.929 -0.293206 32.005 -0.293206 30.8164 0.879618C29.6308 2.04944 29.6308 3.94816 30.8164 5.12098L38.2541 11.996H3.0015C1.34467 11.996 0 13.3397 0 14.9955C0 16.6513 1.34467 17.9951 3.0015 17.9951H38.2601Z" fill="white"/>
</svg>
