<svg width="72" height="69" viewBox="0 0 72 69" fill="none" xmlns="http://www.w3.org/2000/svg">
<path fill-rule="evenodd" clip-rule="evenodd" d="M0 21.7241V36.2105H3.6V57.931H0V68.7931H3.6H14.4H21.6H32.4H39.6H50.4H57.6L68.4 68.7967V68.7931H72V57.931H68.4V36.2105H72V21.7241L36 0L0 21.7241ZM14.4 57.931V36.2105H21.6V57.931H14.4ZM32.4 36.2105V57.931H39.6V36.2105H32.4ZM57.6 57.931H50.4V36.2105H57.6V57.931ZM36 28.9655C39.9744 28.9655 43.2 25.7214 43.2 21.7241C43.2 17.7269 39.9744 14.4828 36 14.4828C32.0256 14.4828 28.8 17.7269 28.8 21.7241C28.8 25.7214 32.0256 28.9655 36 28.9655Z" fill="white"/>
</svg>
