<svg width="78" height="128" viewBox="0 0 78 128" fill="none" xmlns="http://www.w3.org/2000/svg">
<path d="M39.2 0.599976C39.2 0.999976 39.2 1.39998 39.2 1.79998C39.2 16.6 39.2 31.6 39.2 46.4C39.2 46.6 39.2 47 39.2 47.2C39.2 47.4 39 47.6 38.8 47.6C37.4 48.2 36.2 48.8 34.8 49.4C33 50.2 31 51 29.2 52C27 53 24.8 54 22.6 55C20.8 55.8 19 56.6 17.2 57.4C15 58.4 12.8 59.4 10.6 60.4C8.8 61.2 7 62 5 63C3.6 63.6 2 64.4 0.6 65C0.4 65 0.4 65.2 0.2 65C0.2 65 0.2 65 0 65C0.6 64 1.2 63.2 1.8 62.2C5 56.8 8.4 51.4 11.6 46C15 40.2 18.6 34.4 22 28.6C25.2 23.2 28.4 17.8 31.6 12.6C34 8.59998 36.4 4.79998 38.6 0.799976C39 0.799976 39 0.599976 39.2 0.599976C39.2 0.599976 39 0.599976 39.2 0.599976Z" fill="white"/>
<path d="M78 69C75 71 71.8 72.8 68.8 74.6C59 80.4 49.4 86 39.6 91.8C39.4 91.8 39.4 92 39.2 92C39 92 39 91.8 39 91.8C39 91.6 39 91.4 39 91.2C39 78.2 39 65.2 39 52.2C39 52 39 51.8 39 51.6C39 51.4 39.2 51.4 39.4 51.4C40.2 51.8 41 52.2 42 52.6C44.4 53.8 47 54.8 49.4 56C51.6 57 53.6 58 55.8 58.8C58 59.8 60 60.8 62.2 61.8C64 62.6 66 63.4 67.8 64.4C69.6 65.2 71.6 66 73.4 67C74.8 67.6 76.2 68.4 77.8 69C77.8 68.8 77.8 69 78 69Z" fill="white"/>
<path d="M39.2 127.2C39.2 127.2 39 127.2 39.2 127.2C39 127.2 39 127.2 38.8 127C34.8 121.4 31 116 27 110.4C23 104.8 19 99.2 15 93.6C11.2 88.2 7.2 82.8 3.4 77.2C2.4 75.8 1.4 74.4 0.399997 73C0.399997 72.8 0.199997 72.8 0.199997 72.6C0.399997 72.6 0.399997 72.8 0.599997 72.8C6 76 11.6 79.2 17 82.4C23.2 86.2 29.6 89.8 35.8 93.6C36.8 94.2 38 94.8 39 95.4C39.2 95.4 39.2 95.6 39.2 95.8C39.2 96 39.2 96.2 39.2 96.4C39.2 106.4 39.2 116.2 39.2 126.2C39.2 126.4 39.2 126.8 39.2 127.2Z" fill="white"/>
<path d="M0.199997 65C0.199997 65 0.399997 65 0.199997 65C0.399997 65 0.399997 65 0.199997 65C0.199997 65.2 0.199997 65.2 0.199997 65Z" fill="white"/>
<path d="M0.400002 69.2C0.400002 69 0.400002 69 0.400002 69.2C2.4 68.2 4.4 67.4 6.4 66.4C9 65.2 11.6 64 14.2 62.8C16.2 61.8 18.2 61 20.2 60C23 58.6 26 57.4 28.8 56C30.8 55.2 32.8 54.2 34.8 53.4C36.2 52.8 37.6 52.2 39 51.4C39.2 51.4 39.2 51.2 39.4 51.2C39.4 51.2 39.4 51.2 39.4 51.4C39.4 51.6 39.4 51.6 39.4 51.8C39.4 65 39.4 78.2 39.4 91.4C39.4 91.6 39.4 91.7999 39.4 92C39.2 92.2 39.2 92 39 92C38.4 91.5999 37.8 91.4 37.4 91C25.2 83.7999 13 76.6 0.800002 69.4C0.600002 69.2 0.400002 69.2 0.400002 69.2Z" fill="white"/>
<path d="M77.8 72.6C77.8 72.8 77.8 72.8 77.6 73C66 89.4 54.4 105.6 42.8 122C41.6 123.8 40.4 125.4 39.2 127.2C39.2 127.2 39.2 127.2 39.2 127C39.2 126.8 39.2 126.8 39.2 126.6C39.2 116.4 39.2 106.2 39.2 96C39.2 95.8 39.2 95.6 39.2 95.4C41.8 93.8 44.4 92.2 47 90.8C57.2 84.8 67.4 78.8 77.6 72.8C77.6 72.6 77.8 72.6 77.8 72.6Z" fill="white"/>
<path d="M39.2 47.4C39.2 47.2 39.2 47 39.2 47C39.2 31.8 39.2 16.4 39.2 1.20005C39.2 1.00005 39.2 0.800049 39.2 0.800049C52 22 64.8 43.2 77.6 64.4C77.8 64.6 78 64.8 78 65C77.2 64.6 76.4 64.2001 75.4 63.8C74.4 63.4 73.4 62.8 72.4 62.4C71.8 62.2 71.2 61.8 70.4 61.6C69.4 61.2 68.2 60.6001 67.2 60.2001C66.6 60 66 59.6 65.4 59.4C64 58.8 62.6 58.2 61.2 57.6C60.4 57.2 59.8 57 59 56.6C58 56.2 57 55.6001 56 55.2001C55.4 55 54.8 54.6 54.2 54.4C52.8 53.8 51.4 53.2 50 52.6C49.2 52.2 48.6 52 47.8 51.6C46.8 51.2 45.8 50.6001 44.8 50.2001C44.2 49.8 43.4 49.6001 42.8 49.2001C41.6 48.6001 40.4 48 39.2 47.4Z" fill="white"/>
</svg>
