<svg width="127" height="128" viewBox="0 0 127 128" fill="none" xmlns="http://www.w3.org/2000/svg">
<g id="first-screen__logo-bitcoin">
<path id="Oval" d="M63.4 127.4C98.4149 127.4 126.8 99.0148 126.8 64C126.8 28.9851 98.4149 0.599976 63.4 0.599976C28.3851 0.599976 0 28.9851 0 64C0 99.0148 28.3851 127.4 63.4 127.4Z" fill="#F5B300"/>
<path id="Shape" fill-rule="evenodd" clip-rule="evenodd" d="M46.2472 31.6129L46.2 31.6L46.2 31.6C46.0661 31.7339 46.0219 31.7782 46.2472 31.6129ZM46.6585 31.7223C46.7057 31.5471 46.7528 31.3729 46.8 31.2C46.5355 31.3984 46.3584 31.5312 46.2472 31.6129C46.3843 31.6501 46.5214 31.6865 46.6585 31.7223ZM46.6585 31.7223C46.4057 32.6616 46.1528 33.6308 45.9 34.6C45.6 35.75 45.3 36.9 45 38C44.8 38.4 45 38.6 45.4 38.6C45.7138 38.6785 46.0354 38.7569 46.3631 38.8369L46.3631 38.8369C47.7061 39.1646 49.1531 39.5177 50.6 40C52.4 40.6 53.4 42.4 53 44C50.6 54.4 48 64.6 45.4 74.8C45.2 76.2 44 77 42.4 76.6C41 76.4 39.4 76 38 75.6C37.4 75.6 37.2 75.6 37 76.2C36.4 77.8 35.6 79.6 34.8 81.4C34.6 81.8 34.45 82.15 34.3 82.5C34.15 82.85 34 83.2 33.8 83.6C38.6 84.8 43.2 86 47.8 87.2C47.8 87.4343 47.7314 87.6 47.6745 87.7373C47.6343 87.8343 47.6 87.9172 47.6 88C46.6 91.2 45.8 94.6 45 98C44.8 98.4 44.8 98.6 45.4 98.8C47.4 99.2 49.4 99.6 51.4 100.2C51.9286 100.376 51.9915 100.242 52.1358 99.934L52.1359 99.9337C52.1553 99.8922 52.1762 99.8475 52.2 99.8C52.4 98.9 52.65 98 52.9 97.1C53.15 96.2 53.4 95.3 53.6 94.4C53.8 93.5 54.05 92.6 54.3 91.7C54.55 90.8 54.8 89.9 55 89C56.8 89.4 58.4 89.8 60 90.2C60.2883 90.3442 60.2649 90.4883 60.2294 90.7074C60.2156 90.7922 60.2 90.8883 60.2 91C59.2 94.2 58.4 97.6 57.6 101C57.4 101.4 57.4 101.6 58 101.8C58.9 102 59.85 102.25 60.8 102.5C61.75 102.75 62.7 103 63.6 103.2C64.5569 103.583 64.5981 103.416 64.7752 102.7L64.8 102.6C65.2 101 65.6 99.35 66 97.7C66.4 96.05 66.8 94.4 67.2 92.8C67.4 92.2 67.8 92 68.4 92.2C72.4 92.8 76.4 93.2 80.6 92.6C83.8 92.2 86.6 90.8 88.8 88.2C90.6 86 91.6 83.6 92.4 80.8C93 78.6 93.2 76.2 92.8 74C92 71.2 90.4 69 88 67.2C87.6 66.9 87.2 66.65 86.8 66.4C86.4 66.15 86 65.9 85.6 65.6C85.8343 65.6 86 65.5314 86.1373 65.4745C86.2343 65.4343 86.3172 65.4 86.4 65.4C88 64.8 89.6 64 90.8 62.8C92.4 61.2 93.2 59.2 93.8 57C94.6 53.8 94.4 50.6 92.6 47.6C91.2 45.6 89.4 44 87.4 42.8L80.8 39.8C80.2 39.6 80 39.4 80.2 38.8C80.6 37.8 80.8 36.8001 81 35.8001L81 35.8L81.0001 35.7995C81.6001 33.3997 82.2001 30.9998 82.8 28.4C82.7 28.4 82.65 28.35 82.6 28.3C82.55 28.25 82.5 28.2 82.4 28.2C81.4522 27.9415 80.5415 27.7202 79.652 27.5039C78.4767 27.2182 77.3384 26.9415 76.2 26.6C75.8 26.4 75.6 26.6 75.6 27L75 29.4C74.2 32 73.6 34.4 73 37C72.9333 37.0667 72.8667 37.1556 72.8 37.2445C72.6667 37.4222 72.5333 37.6 72.4 37.6C71.6001 37.4 70.7501 37.2001 69.9002 37.0001L69.9 37L69.8996 36.9999C69.0497 36.8 68.1999 36.6 67.4 36.4C67.6 36 67.6 35.8 67.6 35.6C68 34.0001 68.4 32.3501 68.8 30.7001L68.8 30.7C69.2 29.05 69.6 27.4 70 25.8C70.2 25.4 70.2 25.2 69.6 25C67.6 24.6 65.8 24.2 63.8 23.6C63.2 23.4 63 23.6 62.8 24.2C62.4001 25.8998 62.0001 27.5495 61.6002 29.1992L61.6 29.2L61.6 29.2001C61.2 30.8501 60.8 32.5001 60.4 34.2C60.2 34.8 60 35 59.4 34.8C58.3 34.5 57.2 34.25 56.1001 34L56.1 34L56.1 34C55 33.75 53.9 33.5 52.8 33.2C51.7 32.9 50.6 32.65 49.5 32.4L49.4999 32.4C48.5528 32.1848 47.6057 31.9695 46.6585 31.7223ZM56.4 81C56.6 81 56.8 81.2 56.8 81.2C57.3011 81.3253 57.8072 81.4555 58.3174 81.5868C61.0649 82.2936 63.9325 83.0313 66.8 83.2C69.2 83.4 71.4 83.4 73.6 82.6C77.4 81.4 79 76.4 76.8 73.2C75.8 71.6 74.2 70.6 72.6 69.6C69.1058 67.6588 65.0463 66.8481 61.153 66.0706L61.153 66.0706L60.8 66C60.2531 65.8177 60.2047 65.9677 60.049 66.45C60.0339 66.4969 60.0177 66.5469 60 66.6C59.8 67.6 59.55 68.55 59.3 69.5C59.05 70.45 58.8 71.4 58.6 72.4C58.1442 73.9955 57.7533 75.5909 57.3533 77.2233L57.3533 77.2234L57.3532 77.2235C57.0513 78.4559 56.7442 79.7095 56.4 81ZM75.4 60.2C74.6 60.4 73.6 60.6 73.2 60.6C70.8789 60.6 68.8735 60.2844 66.8021 59.9583C66.0178 59.8348 65.224 59.7099 64.4 59.6C64 59.5 63.65 59.4 63.3 59.3C62.95 59.2 62.6 59.1 62.2 59C61.8 58.8 61.6 58.6 61.8 58.2C63 54 64 50 65 45.8C65.2 45.2 65.4 45 66 45.2C66.5956 45.3589 67.1834 45.5098 67.7648 45.6591C70.1118 46.2619 72.3559 46.8383 74.6 47.8C76.4 48.6 78.2 49.8 79.2 51.6C81.2 55 79.2 59.4 75.4 60.2Z" fill="white"/>
</g>
</svg>
