<svg width="67" height="67" viewBox="0 0 67 67" fill="none" xmlns="http://www.w3.org/2000/svg">
<path fill-rule="evenodd" clip-rule="evenodd" d="M11.6922 7.24067C18.1801 2.92096 26.8223 3.7779 32.3318 9.28729C35.3897 12.3457 37.1072 16.4897 37.1076 20.8104C37.1078 28.5942 31.5975 35.2936 23.9479 36.8104C16.2982 38.3272 8.64048 34.2386 5.65924 27.0459C2.67801 19.8531 5.2042 11.5604 11.6922 7.24067ZM12.9311 32.5297C18.5344 36.259 25.9972 35.5177 30.7539 30.7591C33.3935 28.1183 34.8759 24.5405 34.876 20.8104C34.876 14.0886 30.1173 8.30365 23.5113 6.99429C16.9053 5.68494 10.2927 9.21631 7.71909 15.4278C5.14544 21.6394 7.32786 28.8003 12.9311 32.5297Z" fill="white"/>
<path fill-rule="evenodd" clip-rule="evenodd" d="M43.0419 33.303L66.5999 57.3031C66.8046 57.511 66.9192 57.7908 66.9193 58.0821V65.8772C66.9193 66.1727 66.8018 66.4559 66.5926 66.6648C66.3833 66.8736 66.0993 66.991 65.8034 66.9909H58.7501C58.4542 66.9909 58.1704 66.8736 57.9613 66.6646L54.8874 63.5975C54.8757 63.5858 54.8682 63.5722 54.8606 63.5585C54.8586 63.5549 54.8566 63.5512 54.8545 63.5475C54.8501 63.5399 54.8453 63.5324 54.8394 63.5254C54.7584 63.4176 54.689 63.3014 54.6324 63.1789C54.6318 63.1773 54.6311 63.1758 54.6303 63.1743C54.6293 63.1724 54.6282 63.1706 54.627 63.1688C54.6249 63.1654 54.6228 63.162 54.6215 63.1581L53.3389 59.3186H51.0723L51.069 59.3192C50.9341 59.3168 50.8008 59.2897 50.6757 59.2393C50.6372 59.2229 50.5999 59.2041 50.5636 59.1833C50.3635 59.0826 50.2004 58.9213 50.0977 58.7225C50.0733 58.6827 50.0518 58.6413 50.0329 58.5986C50.0272 58.5835 50.0163 58.5722 50.0111 58.5568L48.7285 54.7174H46.4621L46.4588 54.7179C46.3239 54.7157 46.1905 54.6886 46.0654 54.6382C46.027 54.6217 45.9897 54.603 45.9534 54.5822C45.7533 54.4815 45.5902 54.3202 45.4874 54.1214C45.4631 54.0816 45.4416 54.0402 45.4227 53.9975C45.4199 53.9903 45.416 53.9839 45.4121 53.9776L45.4076 53.9701C45.405 53.9655 45.4026 53.9609 45.4009 53.9557L44.1183 50.1163H41.8649C41.8581 50.1164 41.8519 50.1201 41.8452 50.1201C41.5493 50.1205 41.2654 50.0031 41.0564 49.7939L33.7844 42.5357C32.5355 43.1341 31.0439 42.8768 30.0685 41.8951L28.2179 40.0485C19.1631 43.5382 8.89478 40.2774 3.52574 32.207C-1.84343 24.1366 -0.869935 13.4263 5.86662 6.45193C12.6032 -0.52244 23.2918 -1.88619 31.5696 3.17278C39.8475 8.23174 43.4892 18.3533 40.327 27.512L42.4033 29.5847C43.3876 30.562 43.6439 32.0543 43.0419 33.303ZM7.74329 7.79471C0.540787 14.9833 0.541053 26.638 7.74395 33.8264C14.9467 41.0148 26.6245 41.0145 33.8272 33.8259C41.0298 26.6372 41.0295 14.9826 33.8266 7.79418C26.6237 0.605813 14.9458 0.606078 7.74329 7.79471ZM33.1424 40.3204C32.7286 40.7309 32.0602 40.7309 31.6463 40.3204L30.4019 39.0787C34.3347 37.0189 37.4939 33.7443 39.4074 29.744L40.8256 31.1599C41.2353 31.5732 41.2353 32.2387 40.8256 32.652L33.1424 40.3204ZM59.2121 64.7638H64.6876V58.5368L41.6067 35.0222L40.1194 36.5065L59.5391 55.8877C59.9747 56.3226 59.9747 57.0276 59.5391 57.4624C59.1033 57.8973 58.3969 57.8973 57.9613 57.4624L38.5416 38.0812L35.5092 41.1076L42.3037 47.8892H44.9226C45.4029 47.8891 45.8293 48.1961 45.9806 48.651L47.2627 52.4903H49.5328C50.0131 52.4902 50.4396 52.7972 50.5909 53.2522L51.8729 57.0916H54.143C54.6233 57.0915 55.0498 57.3985 55.2011 57.8534L56.6574 62.2148L59.2121 64.7638Z" fill="white"/>
</svg>
