<svg width="97" height="90" viewBox="0 0 97 90" fill="none" xmlns="http://www.w3.org/2000/svg">
<path fill-rule="evenodd" clip-rule="evenodd" d="M12.9332 45C12.9332 27.2528 27.4093 12.866 45.2666 12.866C63.1154 12.8864 77.5796 27.2613 77.6 45C77.6 62.7471 63.1239 77.1339 45.2666 77.1339C27.4093 77.1339 12.9332 62.7471 12.9332 45ZM16.1666 45C16.1666 60.9723 29.1951 73.9205 45.2666 73.9205C61.3307 73.9026 74.3486 60.9648 74.3666 45C74.3666 29.0276 61.3381 16.0795 45.2666 16.0795C29.1951 16.0795 16.1666 29.0276 16.1666 45Z" fill="white"/>
<path d="M45.2666 9.65277C45.6946 9.64637 46.1044 9.47992 46.4145 9.18676C46.4791 9.10599 46.5439 9.02597 46.608 8.94595C46.6693 8.85633 46.7184 8.75898 46.754 8.65637C46.8004 8.56505 46.8332 8.46752 46.851 8.36679C46.8688 8.26059 46.8796 8.15346 46.8834 8.04595C46.8872 7.39317 46.4933 6.80308 45.8867 6.55266C45.2801 6.30243 44.5814 6.44158 44.1189 6.90513C43.9761 7.06103 43.8609 7.24028 43.7787 7.43478C43.6959 7.62815 43.6523 7.83582 43.65 8.04595C43.6531 8.47204 43.8209 8.88043 44.1189 9.18676C44.4289 9.48011 44.8387 9.64637 45.2666 9.65277Z" fill="white"/>
<path d="M45.8867 80.4607C45.2801 80.2105 44.5814 80.3497 44.1189 80.8132C43.9761 80.9691 43.8609 81.1484 43.7787 81.3429C43.6959 81.5362 43.6523 81.7439 43.65 81.954C43.6531 82.3801 43.8209 82.7885 44.1189 83.0948C44.7564 83.7162 45.777 83.7162 46.4145 83.0948C46.4791 83.0141 46.5439 82.9341 46.608 82.854C46.6693 82.7644 46.7184 82.6671 46.754 82.5644C46.8004 82.4731 46.8332 82.3756 46.8512 82.2749C46.869 82.1687 46.8798 82.0615 46.8836 81.954C46.8872 81.3012 46.4933 80.711 45.8867 80.4607Z" fill="white"/>
<path d="M35.0164 10.7934C35.2178 10.8693 35.4317 10.9071 35.6471 10.9056C36.0724 10.9098 36.4813 10.7414 36.7791 10.4396C37.0889 10.1431 37.2637 9.73411 37.2637 9.3067C37.2637 8.8793 37.0887 8.47034 36.7791 8.17379C36.314 7.71928 35.6225 7.5807 35.0164 7.82076C34.8198 7.89852 34.643 8.01921 34.4994 8.17379C33.8742 8.80116 33.8742 9.81206 34.4994 10.4394C34.6476 10.5893 34.823 10.7094 35.0164 10.7934Z" fill="white"/>
<path d="M56.3892 80.0734C56.3411 79.9791 56.2869 79.888 56.2274 79.8004C56.177 79.7097 56.1115 79.6281 56.0332 79.5596C55.3851 78.965 54.3859 78.965 53.7376 79.5596C53.1124 80.187 53.1124 81.1979 53.7376 81.8252C54.044 82.1259 54.4549 82.2984 54.8855 82.3069C55.0968 82.3048 55.3055 82.2609 55.4997 82.1783C55.7038 82.1054 55.887 81.9841 56.0334 81.8252C56.3371 81.5292 56.5065 81.1229 56.5023 80.7002C56.5076 80.5923 56.4968 80.4841 56.4699 80.3794C56.4506 80.2756 56.4237 80.1732 56.3892 80.0734Z" fill="white"/>
<path d="M25.187 13.6053C25.2226 13.7075 25.2717 13.8046 25.3331 13.8939C25.3928 13.9782 25.4576 14.059 25.5273 14.1355C25.6851 14.2803 25.8649 14.3994 26.0602 14.4885C26.2557 14.5661 26.4647 14.6043 26.6752 14.6007C26.7837 14.6058 26.8925 14.5953 26.998 14.5693C27.0971 14.5497 27.1945 14.5226 27.2894 14.4885C27.39 14.4412 27.4872 14.3876 27.5808 14.3277C27.6653 14.2682 27.7462 14.2042 27.8233 14.1355C27.8879 14.0547 27.9527 13.9747 28.0167 13.8939C28.0781 13.8045 28.1272 13.7075 28.1628 13.6053C28.2092 13.5139 28.242 13.4164 28.26 13.3157C28.2785 13.2093 28.2893 13.1018 28.2924 12.9941C28.2979 12.7834 28.2535 12.5744 28.163 12.3837C28.0807 12.1892 27.9659 12.0097 27.8235 11.8533C27.7422 11.7891 27.6617 11.7254 27.5811 11.661C27.491 11.6 27.393 11.5513 27.2898 11.5159C27.1979 11.4697 27.0997 11.4372 26.9984 11.4193C26.6833 11.3539 26.3556 11.3876 26.0606 11.5159C25.655 11.6627 25.3354 11.9804 25.1876 12.3835C25.105 12.5767 25.0612 12.784 25.059 12.9939C25.0614 13.1018 25.0722 13.2093 25.0914 13.3155C25.108 13.4164 25.1404 13.5139 25.187 13.6053Z" fill="white"/>
<path d="M64.4724 75.5271C63.8705 75.2746 63.1748 75.4078 62.7105 75.8645C62.5604 76.0154 62.4445 76.1961 62.3702 76.3949C62.2874 76.5881 62.2439 76.7954 62.2416 77.0054C62.2374 77.4328 62.4064 77.8438 62.7105 78.146C63.0146 78.4482 63.4281 78.6161 63.8582 78.612C64.0694 78.6094 64.278 78.5657 64.4724 78.4834C64.6683 78.4019 64.8488 78.2878 65.0061 78.146C65.6313 77.5124 65.6313 76.4981 65.0061 75.8645C64.849 75.7224 64.6685 75.6083 64.4724 75.5271Z" fill="white"/>
<path d="M17.4763 19.4852C17.5244 19.5818 17.5725 19.6782 17.6216 19.7589C17.6788 19.8493 17.7497 19.9307 17.8315 19.9998C18.1339 20.3065 18.5473 20.4799 18.9794 20.4814C19.1906 20.4793 19.3994 20.4355 19.5936 20.3528C19.7906 20.2752 19.9678 20.1545 20.1114 19.9998C20.1932 19.9307 20.2641 19.8493 20.3213 19.7589C20.3694 19.6782 20.4185 19.5816 20.4666 19.4852C20.499 19.3895 20.5312 19.2929 20.5638 19.18C20.5827 19.0792 20.5935 18.9772 20.5962 18.8748C20.5924 18.6597 20.5485 18.4472 20.4668 18.248C20.3887 18.0523 20.2673 17.8767 20.1116 17.7341C19.7283 17.361 19.1846 17.1994 18.6581 17.302C18.1316 17.4046 17.6896 17.7584 17.4767 18.248C17.3997 18.4481 17.3613 18.6607 17.363 18.8748C17.3577 18.9776 17.3687 19.0806 17.3954 19.18C17.4124 19.2839 17.4397 19.3861 17.4763 19.4852Z" fill="white"/>
<path d="M70.9392 69.6465C70.5508 69.8191 70.2399 70.1281 70.0662 70.5141C69.9834 70.7071 69.9392 70.9146 69.9368 71.1245C69.9351 71.5547 70.1105 71.9669 70.4222 72.2653C70.5699 72.4154 70.7456 72.5355 70.9392 72.6191C71.1345 72.6963 71.3431 72.7343 71.5534 72.7313C71.984 72.7388 72.3989 72.5703 72.7013 72.2653C73.0055 71.9631 73.1743 71.5519 73.1702 71.1245C73.1743 70.702 73.005 70.296 72.7013 70.0003C72.2358 69.5465 71.5452 69.4079 70.9392 69.6465Z" fill="white"/>
<path d="M11.5748 27.1333C11.6104 27.2357 11.6595 27.3332 11.7209 27.4227C11.7855 27.5027 11.8495 27.5827 11.9143 27.6635C12.0718 27.8051 12.2521 27.9192 12.448 28.0009C12.8394 28.1724 13.2856 28.1724 13.677 28.0009C13.8767 27.9267 14.0584 27.8119 14.2105 27.6635C14.5079 27.357 14.6756 26.9486 14.6786 26.5227C14.6726 26.0975 14.5055 25.6901 14.2105 25.3819C14.0586 25.2331 13.8767 25.1179 13.677 25.0439C13.2865 24.8673 12.8383 24.8673 12.448 25.0439C12.2521 25.1256 12.0716 25.2399 11.9143 25.3821C11.6192 25.6901 11.4519 26.0975 11.4454 26.5229C11.4485 26.6304 11.4593 26.7377 11.4778 26.8437C11.4958 26.9446 11.5284 27.0422 11.5748 27.1333Z" fill="white"/>
<path d="M76.3229 62.3363C75.6953 62.9652 75.6981 63.9801 76.329 64.6055C76.9601 65.231 77.9812 65.231 78.6123 64.6055C79.2434 63.9801 79.246 62.9652 78.6183 62.3363C77.9693 61.7442 76.9722 61.7442 76.3229 62.3363Z" fill="white"/>
<path d="M9.34403 37.0465C9.77599 37.045 10.1896 36.8714 10.4919 36.5648C10.5743 36.4957 10.6452 36.4142 10.7018 36.3233C10.7507 36.2432 10.799 36.1466 10.8479 36.0502C10.8845 35.9514 10.9114 35.8492 10.9284 35.745C10.9551 35.6456 10.9661 35.5426 10.9608 35.4398C10.9656 34.9588 10.7511 34.5016 10.3775 34.1958C10.0039 33.8901 9.51113 33.7686 9.03712 33.8654C8.93254 33.8823 8.82967 33.9091 8.73001 33.9454C8.63301 33.9895 8.54113 34.0433 8.45531 34.1062C8.36115 34.1523 8.27836 34.2182 8.21224 34.2992C8.0567 34.4419 7.93526 34.6176 7.85701 34.813C7.78067 35.0132 7.7424 35.2257 7.7441 35.4398C7.73974 35.8625 7.90874 36.2687 8.21224 36.5648C8.50817 36.8708 8.91663 37.0446 9.34403 37.0465Z" fill="white"/>
<path d="M81.1886 56.166C81.614 56.1702 82.0228 56.0018 82.3206 55.7C82.6292 55.3995 82.8037 54.9887 82.8052 54.5592C82.8035 54.1346 82.6287 53.729 82.3206 53.4349C81.685 52.8238 80.6764 52.8238 80.0409 53.4349C79.7372 53.7307 79.5679 54.1367 79.572 54.5592C79.5679 54.9866 79.7369 55.3976 80.0409 55.6998C80.345 56.0022 80.7586 56.1702 81.1886 56.166Z" fill="white"/>
<path d="M8.6974 46.4782C8.89329 46.3963 9.07365 46.2824 9.23109 46.1408C9.37697 45.987 9.49215 45.807 9.57059 45.6104C9.74318 45.2214 9.74318 44.778 9.57059 44.389C9.48836 44.1947 9.37356 44.0157 9.23109 43.8594C9.07384 43.7174 8.89348 43.6029 8.6974 43.5212C8.30352 43.3612 7.8621 43.3612 7.46841 43.5212C7.27271 43.6029 7.09235 43.7172 6.93548 43.8594C6.79264 44.0153 6.67745 44.1945 6.59523 44.389C6.42358 44.7784 6.42358 45.2212 6.59523 45.6106C6.67366 45.8074 6.78923 45.9874 6.93548 46.141C7.09273 46.2826 7.2729 46.3967 7.46841 46.4784C7.85982 46.6498 8.3058 46.6498 8.6974 46.4782Z" fill="white"/>
<path d="M81.3021 43.8592C80.6745 44.4881 80.6773 45.5029 81.3082 46.1284C81.9392 46.7539 82.9604 46.7539 83.5915 46.1284C84.2225 45.5029 84.2252 44.4881 83.5975 43.8592C82.9485 43.2672 81.9514 43.2672 81.3021 43.8592Z" fill="white"/>
<path d="M10.8479 53.949C10.799 53.8526 10.7507 53.756 10.7019 53.676C10.6408 53.5834 10.5706 53.4971 10.4919 53.4186C10.106 53.0488 9.56419 52.8873 9.03713 52.9848C8.93198 53.0076 8.8293 53.0398 8.73002 53.0814C8.63359 53.1198 8.54152 53.1682 8.45532 53.2258C8.36817 53.2821 8.2867 53.3467 8.21225 53.4188C7.91083 53.7229 7.74259 54.1328 7.74411 54.5596C7.73956 54.9842 7.90609 55.393 8.20675 55.6948C8.50742 55.9966 8.91682 56.1664 9.34423 56.1662C9.77429 56.1704 10.1879 56.0024 10.4919 55.7002C10.796 55.398 10.965 54.9868 10.9608 54.5596C10.9661 54.4568 10.9552 54.3538 10.9284 54.2544C10.9114 54.1503 10.8843 54.048 10.8479 53.949Z" fill="white"/>
<path d="M81.1886 37.0465C82.0726 37.0256 82.7844 36.3184 82.8052 35.4399C82.8037 35.0106 82.6291 34.5995 82.3206 34.299C81.6786 33.7044 80.683 33.7044 80.0409 34.299C79.7367 34.6012 79.5679 35.0125 79.572 35.4399C79.5679 35.8626 79.7372 36.2689 80.0409 36.5649C80.3431 36.8716 80.7565 37.045 81.1886 37.0465Z" fill="white"/>
<path d="M13.677 61.9981C13.2831 61.8381 12.8417 61.8381 12.448 61.9981C12.2521 62.0799 12.0716 62.1941 11.9143 62.3363C11.2891 62.9699 11.2891 63.9842 11.9143 64.6177C12.0718 64.7593 12.2521 64.8734 12.448 64.9552C12.8396 65.1267 13.2856 65.1267 13.677 64.9552C13.8765 64.881 14.0584 64.7661 14.2105 64.6177C14.8346 63.9838 14.8346 62.9703 14.2105 62.3363C14.0586 62.1876 13.8769 62.0723 13.677 61.9981Z" fill="white"/>
<path d="M77.4706 28.1297C78.2329 28.1224 78.8843 27.5816 79.0275 26.8375C79.1707 26.0934 78.7661 25.352 78.0603 25.0654C77.3544 24.7788 76.5434 25.0268 76.1213 25.6577C75.6994 26.2889 75.7835 27.1281 76.3227 27.6637C76.6328 27.9569 77.0426 28.1233 77.4706 28.1297Z" fill="white"/>
<path d="M20.1112 70.0002C19.9674 69.8452 19.7905 69.7242 19.5934 69.6464C19.2988 69.5178 18.9713 69.4841 18.6564 69.5498C18.5592 69.582 18.4457 69.614 18.3485 69.6464C18.2523 69.6942 18.1708 69.743 18.0738 69.7908C17.9857 69.8518 17.9044 69.9221 17.8315 70.0002C17.6809 70.1471 17.5602 70.3216 17.4763 70.514C17.398 70.708 17.3594 70.9155 17.3626 71.1245C17.3607 71.3385 17.3994 71.5513 17.4763 71.7513C17.5602 71.9437 17.6809 72.1182 17.8315 72.2651C17.9044 72.3432 17.9857 72.4133 18.0738 72.4737C18.171 72.5223 18.2523 72.5701 18.3485 72.6189C18.4489 72.6531 18.5518 72.6799 18.6564 72.6989C18.7617 72.7254 18.8707 72.7364 18.9792 72.7311C19.1893 72.7343 19.3981 72.6961 19.5934 72.6189C19.7872 72.5351 19.963 72.415 20.1112 72.2651C20.2671 72.1227 20.3886 71.9469 20.4664 71.7513C20.5498 71.5526 20.5937 71.3397 20.5958 71.1245C20.5935 70.9145 20.5496 70.707 20.4664 70.514C20.3886 70.3184 20.2671 70.1427 20.1112 70.0002Z" fill="white"/>
<path d="M70.4222 19.9998C70.5654 20.1547 70.7423 20.2754 70.9392 20.3528C71.543 20.6124 72.2457 20.4716 72.7011 19.9998C73.0048 19.7038 73.1742 19.2975 73.17 18.8748C73.1744 18.4474 73.0054 18.0361 72.7011 17.734C72.4021 17.4274 71.991 17.2546 71.5615 17.2546C71.132 17.2546 70.7209 17.4276 70.422 17.734C70.1103 18.0324 69.9349 18.4445 69.9364 18.8748C69.9389 19.0847 69.9828 19.292 70.0658 19.4852C70.1444 19.681 70.2661 19.8569 70.4222 19.9998Z" fill="white"/>
<path d="M27.8229 75.8646C27.7462 75.7955 27.6651 75.7311 27.5806 75.6716C27.4904 75.6108 27.3925 75.5622 27.2892 75.5272C27.1977 75.4803 27.0994 75.4477 26.9978 75.4306C26.6828 75.3649 26.3548 75.3986 26.0601 75.5272C25.8642 75.6083 25.684 75.7224 25.5271 75.8646C25.2318 76.1724 25.0643 76.5799 25.0582 77.0054C25.0607 77.1078 25.0717 77.2099 25.0906 77.3106C25.1056 77.417 25.138 77.52 25.1869 77.6158C25.2191 77.7146 25.2685 77.8069 25.3329 77.8888C25.3884 77.9811 25.4534 78.0673 25.5271 78.1462C25.6813 78.2916 25.8623 78.406 26.0601 78.4836C26.2546 78.5661 26.4636 78.6098 26.675 78.6122C26.7832 78.6092 26.8912 78.5985 26.9978 78.58C27.0992 78.5621 27.1973 78.5295 27.2892 78.4836C27.3923 78.4486 27.4902 78.4 27.5804 78.3392C27.6609 78.275 27.7415 78.2106 27.8227 78.1462C27.8873 78.0654 27.9521 77.9854 28.0162 77.8888C28.0806 77.8069 28.13 77.7146 28.1622 77.6158C28.2109 77.52 28.2439 77.417 28.2594 77.3106C28.278 77.2099 28.2888 77.1078 28.2918 77.0054C28.2975 76.7947 28.253 76.5855 28.1624 76.395C28.088 76.1965 27.9724 76.0158 27.8229 75.8646Z" fill="white"/>
<path d="M63.2434 14.4729C63.6352 14.6435 64.0808 14.6435 64.4724 14.4729C64.6702 14.3949 64.8511 14.2804 65.0061 14.1355C65.6313 13.5017 65.6313 12.4872 65.0061 11.8533C64.8486 11.7117 64.6683 11.5976 64.4724 11.5159C63.8688 11.2801 63.1826 11.4116 62.7105 11.8533C62.5676 12.0095 62.4524 12.189 62.3702 12.3837C62.2876 12.5768 62.2438 12.7841 62.2416 12.9941C62.2262 13.6482 62.6277 14.2409 63.2434 14.4729Z" fill="white"/>
<path d="M36.7791 79.5596C36.7094 79.4781 36.6274 79.4077 36.536 79.351C36.4555 79.3024 36.3583 79.2546 36.2613 79.2066C36.1617 79.1702 36.059 79.1433 35.9542 79.1258C35.4268 79.0205 34.8814 79.1832 34.4994 79.5596C34.3539 79.711 34.2338 79.8844 34.1434 80.0734C34.0671 80.2736 34.029 80.4861 34.0305 80.7002C34.0273 80.909 34.0658 81.1165 34.1434 81.3106C34.2338 81.4999 34.3539 81.6737 34.4994 81.8252C34.8018 82.1319 35.2152 82.3054 35.6473 82.3069C35.7504 82.3042 35.8531 82.2935 35.9544 82.2747C36.0681 82.2425 36.1643 82.2105 36.2615 82.1781C36.3587 82.1302 36.4557 82.0817 36.5362 82.0337C36.6275 81.977 36.7096 81.9066 36.7793 81.825C36.9348 81.6819 37.0563 81.5061 37.1345 81.3105C37.2179 81.1175 37.2618 80.91 37.2639 80.7C37.2601 80.485 37.2162 80.2724 37.1345 80.0732C37.0561 79.878 36.9346 79.7023 36.7791 79.5596Z" fill="white"/>
<path d="M54.2711 10.7934C54.6667 10.9429 55.1038 10.9429 55.4994 10.7934C55.7002 10.7138 55.8819 10.5933 56.0331 10.4396C56.3373 10.1374 56.5061 9.72622 56.502 9.29882C56.5059 8.87612 56.3367 8.46999 56.0331 8.17382C55.3912 7.5634 54.3795 7.5634 53.7375 8.17382C53.1123 8.80118 53.1123 9.81208 53.7375 10.4394C53.8945 10.5861 54.0749 10.7057 54.2711 10.7934Z" fill="white"/>
<path fill-rule="evenodd" clip-rule="evenodd" d="M94.9337 31.5534C94.9381 31.5681 94.9426 31.5829 94.948 31.5976C97.6839 40.3257 97.6839 49.6744 94.9482 58.4023C94.9428 58.4168 94.9384 58.4315 94.934 58.4461L94.934 58.4461L94.9339 58.4465C94.9274 58.468 94.9209 58.4894 94.9115 58.51C93.3968 63.2742 91.0923 67.7536 88.093 71.7635C88.0825 71.7755 88.0741 71.789 88.0658 71.8025C88.0562 71.8183 88.0465 71.834 88.0334 71.8469C79.5012 83.2591 66.0392 89.9865 51.7334 89.9874C50.5186 89.9874 49.4596 89.9445 48.4865 89.8611C47.4216 89.9358 46.3503 89.9874 45.2666 89.9874C20.2666 89.9874 0 69.8459 0 45C0 20.1542 20.2666 0.0126395 45.2664 0.0124512C46.3501 0.0124512 47.4214 0.0640411 48.4864 0.13879C49.4594 0.05538 50.5186 0.0124512 51.7332 0.0124512C66.039 0.0133926 79.501 6.7408 88.0332 18.1529C88.0463 18.1659 88.056 18.1816 88.0657 18.1973C88.074 18.2109 88.0823 18.2244 88.0929 18.2363C91.0921 22.2462 93.3964 26.7257 94.9113 31.4899C94.9162 31.5006 94.9203 31.5116 94.9241 31.5227C94.9275 31.5328 94.9306 31.5431 94.9337 31.5534ZM90.4923 43.3934H93.7259C93.6018 40.1317 93.092 36.8961 92.2066 33.7532H89.1009C89.9154 36.9068 90.382 40.1393 90.4923 43.3934ZM86.0337 20.8996C88.1622 23.8758 89.8883 27.1168 91.1675 30.5398H88.1205C86.9599 27.1531 85.3954 23.9165 83.4604 20.8996H86.0337ZM81.2013 17.6862H83.4963C79.8075 13.4499 75.3036 9.98984 70.2494 7.509C74.4397 10.2779 78.1403 13.7167 81.2013 17.6862ZM45.2666 86.7741C22.0631 86.748 3.25954 68.0604 3.2334 45C3.2334 21.9288 22.0523 3.2259 45.2668 3.2259C68.4812 3.2259 87.3 21.9288 87.3 45C87.3 68.0713 68.481 86.7741 45.2666 86.7741ZM81.2013 72.3137C78.1403 76.2831 74.4397 79.7219 70.2494 82.4909C75.3036 80.0102 79.8075 76.5501 83.4963 72.3137H81.2013ZM86.0337 69.1004H83.4604C85.3954 66.0836 86.9599 62.8469 88.1205 59.4603H91.1675C89.8883 62.8833 88.1624 66.1242 86.0337 69.1004ZM89.1009 56.2468H92.2065C93.0918 53.104 93.6018 49.8683 93.7257 46.6067H90.4923C90.382 49.8608 89.9154 53.0931 89.1009 56.2468Z" fill="white"/>
<path fill-rule="evenodd" clip-rule="evenodd" d="M51.7332 41.7865H40.4166C39.9879 41.7865 39.5767 41.6173 39.2734 41.316C38.9703 41.0148 38.8 40.606 38.8 40.1799V33.753C38.8 32.8656 39.5237 32.1464 40.4166 32.1464H51.7332C54.4117 32.1464 56.5832 34.3045 56.5832 36.9664C56.5832 39.6284 54.4117 41.7865 51.7332 41.7865ZM51.7334 35.3598H42.0334V38.5731H51.7334C52.6261 38.5731 53.35 37.8538 53.35 36.9664C53.35 36.0791 52.6263 35.3598 51.7334 35.3598Z" fill="white"/>
<path fill-rule="evenodd" clip-rule="evenodd" d="M40.4166 45H52.5416C55.6666 45 58.2 47.5177 58.2 50.6233C58.2 53.7291 55.6666 56.2468 52.5416 56.2468H40.4166C39.5239 56.2468 38.8 55.5276 38.8 54.6402V46.6066C38.8 45.7192 39.5237 45 40.4166 45ZM42.0332 53.0335H52.5416C53.881 53.0335 54.9666 51.9545 54.9666 50.6235C54.9666 49.2925 53.8808 48.2135 52.5416 48.2135H42.0332V53.0335Z" fill="white"/>
<path fill-rule="evenodd" clip-rule="evenodd" d="M54.9666 26.1855C59.7711 27.5965 63.0635 31.9877 63.05 36.9665C63.0432 38.929 62.5173 40.8549 61.5247 42.5512C64.451 45.7556 65.4204 50.2746 64.064 54.3866C62.7075 58.4983 59.2338 61.5696 54.9666 62.4301V65.8866C54.9666 66.774 54.2429 67.4932 53.35 67.4932H46.8832C45.9903 67.4932 45.2666 66.774 45.2666 65.8866V62.6732H42.0332V65.8866C42.0332 66.774 41.3095 67.4932 40.4166 67.4932H33.95C33.0571 67.4932 32.3334 66.774 32.3334 65.8866V62.6732H29.1C28.2073 62.6732 27.4834 61.9539 27.4834 61.0665V54.6398C27.4834 53.7524 28.2071 53.0332 29.1 53.0332H32.3334V48.2131H29.1C28.2073 48.2131 27.4834 47.4938 27.4834 46.6065V40.1797C27.4834 39.2925 28.2071 38.5731 29.1 38.5731H32.3334V35.3597H29.1C28.2073 35.3597 27.4834 34.6404 27.4834 33.753V27.3263C27.4834 26.4389 28.2071 25.7197 29.1 25.7197H32.3334V22.5062C32.3334 21.6188 33.0571 20.8996 33.95 20.8996H40.4168C41.3095 20.8996 42.0334 21.6188 42.0334 22.5062V25.7197H45.2668V22.5062C45.2668 21.6188 45.9905 20.8996 46.8834 20.8996H53.35C54.2429 20.8996 54.9666 21.6188 54.9666 22.5062V26.1855ZM53.2269 59.4343C56.7986 59.165 59.8577 56.7889 60.9834 53.4094C62.1094 50.0298 61.0812 46.309 58.3766 43.9748C57.7357 43.4175 57.6394 42.4618 58.1564 41.7892C59.8763 39.561 60.2923 36.5991 59.2526 33.988C58.2129 31.3769 55.8697 29.5002 53.0815 29.0454C52.3033 28.9147 51.7334 28.245 51.7332 27.4606V24.113H48.4998V27.3265C48.4998 28.2137 47.7761 28.9331 46.8832 28.9331H40.4166C39.5239 28.9331 38.8 28.2139 38.8 27.3265V24.113H35.5666V27.3265C35.5666 28.2137 34.8429 28.9331 33.95 28.9331H30.7166V32.1466H33.95C34.8429 32.1466 35.5666 32.8658 35.5666 33.7532V40.1799C35.5666 41.0671 34.8429 41.7866 33.95 41.7866H30.7166V45H33.95C34.8429 45 35.5666 45.7193 35.5666 46.6066V54.6402C35.5666 55.5276 34.8429 56.2468 33.95 56.2468H30.7168V59.4603H33.9502C34.8431 59.4603 35.5668 60.1795 35.5668 61.0669V64.2803H38.8002V61.0669C38.8002 60.1795 39.5239 59.4603 40.4168 59.4603H46.8834C47.7763 59.4603 48.5 60.1795 48.5 61.0669V64.2803H51.7334V61.0364C51.7332 60.1965 52.3842 59.4981 53.2269 59.4343Z" fill="white"/>
</svg>
