<svg width="97" height="97" viewBox="0 0 97 97" fill="none" xmlns="http://www.w3.org/2000/svg">
<path fill-rule="evenodd" clip-rule="evenodd" d="M65.2054 48.4147C65.2054 47.5236 64.4815 46.8013 63.5888 46.8013C62.6961 46.8013 61.9722 47.5238 61.9722 48.4147C62.1962 51.5777 64.6373 54.1374 67.7917 54.5161V55.3855C67.7917 56.2766 68.5154 56.999 69.4083 56.999C70.3012 56.999 71.0249 56.2766 71.0249 55.3855V54.5161C74.1791 54.1372 76.6204 51.5777 76.8443 48.4147C76.6206 45.2517 74.1793 42.6921 71.0249 42.3134V36.3306C72.398 36.6097 73.4391 37.7332 73.6109 39.1213C73.6109 40.0124 74.3346 40.7347 75.2275 40.7347C76.1204 40.7347 76.8441 40.0124 76.8441 39.1213C76.6204 35.9583 74.1791 33.3988 71.0249 33.0199V32.1505C71.0249 31.2593 70.301 30.537 69.4083 30.537C68.5156 30.537 67.7917 31.2593 67.7917 32.1505V33.0199C64.6375 33.3988 62.1962 35.9583 61.9722 39.1213C62.1962 42.2843 64.6373 44.8439 67.7917 45.2226V51.2054C66.4183 50.9263 65.3773 49.8028 65.2054 48.4147ZM71.0249 45.624C72.398 45.9031 73.4391 47.0267 73.6109 48.4147C73.4391 49.8028 72.398 50.9263 71.0249 51.2054V45.624ZM67.7915 36.3306C66.4183 36.6097 65.3773 37.7332 65.2054 39.1213C65.3773 40.5093 66.4183 41.6329 67.7915 41.9121V36.3306Z" fill="white"/>
<path fill-rule="evenodd" clip-rule="evenodd" d="M48.5 43.5649C48.5 31.9803 57.9096 22.5891 69.5166 22.5891C81.1238 22.5891 90.5332 31.9805 90.5332 43.5649C90.5332 55.1493 81.1238 64.5406 69.5166 64.5406C57.9149 64.5275 48.5131 55.1441 48.5 43.5649ZM51.7332 43.5647C51.7332 53.367 59.6952 61.3135 69.5166 61.3135C79.338 61.3135 87.3 53.367 87.3 43.5647C87.3 33.7625 79.338 25.816 69.5166 25.816C59.6997 25.8272 51.7444 33.767 51.7332 43.5647Z" fill="white"/>
<path fill-rule="evenodd" clip-rule="evenodd" d="M47.468 14.5217H88.9166C93.3788 14.5268 96.9947 18.1358 97 22.5891V75.8351C96.9947 80.2886 93.3788 83.8975 88.9166 83.9028H63.05V87.1299H74.3668C74.7957 87.1299 75.207 87.2998 75.5101 87.6024C75.8135 87.9051 75.9838 88.3156 75.9836 88.7435V95.1975C75.9836 95.6256 75.8133 96.0361 75.5101 96.3386C75.2068 96.6413 74.7955 96.8113 74.3668 96.8111H22.6334C22.2045 96.8111 21.7932 96.6411 21.49 96.3386C21.1867 96.0359 21.0164 95.6254 21.0166 95.1975V88.7435C21.0166 88.3154 21.1869 87.9049 21.49 87.6024C21.7934 87.2996 22.2047 87.1297 22.6334 87.1299H33.95V83.9028H8.0834C3.62121 83.8975 0.00530469 80.2886 0 75.8351V22.5891C0.0128828 18.379 3.27299 14.8892 7.48037 14.5825C10.256 5.90719 18.3273 0.0140165 27.4519 2.42961e-05C36.5766 -0.0137788 44.6658 5.85501 47.468 14.5217ZM10.2621 16.5392V16.5416C8.40793 23.7266 11.2274 31.3042 17.3306 35.54C23.4338 39.7759 31.533 39.7759 37.6364 35.54C43.7398 31.3042 46.5591 23.7265 44.7049 16.5415V16.5394L44.7032 16.536C42.6817 8.69561 35.595 3.21823 27.4834 3.22674C19.372 3.21842 12.2853 8.69561 10.2638 16.536L10.2621 16.5392ZM72.75 90.3568V93.5838H24.25V90.3568H72.75ZM37.1834 83.9028V87.1299H59.8168V83.9028H37.1834ZM93.7666 75.8351C93.7638 78.5072 91.594 80.6728 88.9166 80.6757H8.0834C5.40604 80.6728 3.23624 78.5072 3.2334 75.8351V70.9946H93.7668V75.8351H93.7666ZM3.2334 67.7677H93.7666H93.7668V22.5889C93.7639 19.9168 91.5941 17.7512 88.9168 17.7484H48.2522C48.4172 18.8161 48.5002 19.895 48.5 20.9755C48.4994 28.8319 44.1005 36.0294 37.1017 39.6252C30.103 43.221 21.6778 42.6123 15.2709 38.0478C8.86394 33.4834 5.54965 25.7287 6.68296 17.9541C4.63649 18.5732 3.23605 20.4547 3.2334 22.5891V67.7677Z" fill="white"/>
<path d="M34.5452 19.6218C35.3144 18.6936 35.7386 17.5286 35.746 16.3242V15.7947C35.6997 13.0579 33.622 10.7821 30.896 10.4826V8.79863C30.896 7.90748 30.1723 7.18518 29.2794 7.18518C28.3865 7.18518 27.6628 7.90748 27.6628 8.79863V10.4121H24.4294V8.79863C24.4294 7.90748 23.7057 7.18518 22.8128 7.18518C21.9199 7.18518 21.1962 7.90748 21.1962 8.79863V10.4121H19.5796C18.6867 10.4121 17.963 11.1344 17.963 12.0255C17.963 12.9167 18.6867 13.639 19.5796 13.639H30.1747C31.4156 13.5929 32.4607 14.5562 32.513 15.7945V16.324C32.4607 17.5623 31.4156 18.5257 30.1747 18.4795H24.4296C24.4296 17.5884 23.7058 16.8661 22.813 16.8661C21.9201 16.8661 21.1963 17.5884 21.1963 18.4795V24.9339C21.1963 25.8251 21.9202 26.5474 22.813 26.5474C23.7057 26.5474 24.4296 25.8251 24.4296 24.9339V21.7068H30.7952C32.5658 21.6422 34.0559 23.0174 34.1296 24.7842V25.0835C34.0559 26.8503 32.5658 28.2255 30.7952 28.1608H19.5796C18.6867 28.1608 17.963 28.8833 17.963 29.7743C17.963 30.6652 18.6867 31.3877 19.5796 31.3877H21.1962V33.0012C21.1962 33.8923 21.9201 34.6146 22.8128 34.6146C23.7055 34.6146 24.4294 33.8923 24.4294 33.0012V31.3877H27.6628V33.0012C27.6628 33.8923 28.3865 34.6146 29.2794 34.6146C30.1723 34.6146 30.896 33.8923 30.896 33.0012V31.3779C34.4109 31.3915 37.2883 28.5908 37.3626 25.0833V24.784C37.347 22.7016 36.2899 20.7644 34.5452 19.6218Z" fill="white"/>
<path d="M43.407 50.7225C42.7757 50.0925 41.7521 50.0925 41.1208 50.7225C40.4896 51.3525 40.4896 52.3739 41.1208 53.0042L42.9807 54.8596H42.264C36.782 54.853 32.3397 50.419 32.3334 44.9477C32.3334 44.0565 31.6097 43.3342 30.7168 43.3342C29.8239 43.3342 29.1002 44.0565 29.1002 44.9477C29.108 52.2006 34.9969 58.0786 42.264 58.0867H43.2116L41.121 60.1731C40.7084 60.5798 40.5457 61.176 40.6946 61.7353C40.8435 62.2946 41.2813 62.7316 41.8417 62.8802C42.4021 63.0288 42.9994 62.8664 43.407 62.4546L48.0264 57.8449C48.6438 57.1207 48.6438 56.0565 48.0264 55.3324L43.407 50.7225Z" fill="white"/>
</svg>
