<svg width="128" height="128" viewBox="0 0 128 128" fill="none" xmlns="http://www.w3.org/2000/svg">
<path fill-rule="evenodd" clip-rule="evenodd" d="M0.200001 63.8001C1.35601e-06 98.8001 28.2 127 63.4 127.2C98.2 127.4 126.6 99.2001 127 64.2001C127.2 29.2001 99 0.800056 63.8 0.600056C28.8 0.400056 0.200001 28.6001 0.200001 63.8001ZM63.4 6.60006C95.2 6.60006 120.8 32.2001 120.8 64.0001C120.8 95.6001 95.2 121.2 63.6 121.2C31.8 121.2 6.2 95.6001 6.2 63.8001C6.2 32.2001 31.8 6.60006 63.4 6.60006Z" fill="#C0C0C0"/>
<path fill-rule="evenodd" clip-rule="evenodd" d="M63.2 112.6C90 112.8 111.8 91 112.2 64C112.2 37.2 90.6 15.4 63.6 15.2C37 15 15.2 36.4 14.8 63.4C14.4 90.2 36 112.2 63.2 112.6ZM60.4 80.8V81.4C65.7945 81.4999 71.1392 81.5998 76.4838 81.6997C81.8392 81.7998 87.1945 81.8999 92.6 82C92.423 82.7081 92.2851 83.377 92.1518 84.0241C91.9838 84.8392 91.823 85.6196 91.6 86.4C91 88.2 90.4 90.2 90 92.2C89.8 93.2 89.4 93.4 88.4 93.4H48.4H36.8L36.8002 93.3993C38.6001 86.5995 40.4001 79.7998 42.2 72.8C39.4 73.8 37 74.8 34.2 76C34.8992 73.9022 35.5007 71.9023 36.0728 70.0001C36.3188 69.182 36.5594 68.3819 36.8 67.6C36.8 67.45 37.1375 67.3 37.475 67.15C37.5875 67.1 37.7 67.05 37.8 67C38.7 66.6 39.65 66.25 40.6 65.9C41.55 65.55 42.5 65.2 43.4 64.8C43.8 64.6 44.4 64 44.6 63.4L53 32.2C53.4 31 53.8 30.6 55 30.6H71.8H73.2C71.7172 36.2615 70.3253 41.7413 68.9017 47.3456C68.2132 50.0564 67.5172 52.7963 66.8 55.6C70 54.4 73 53.2 76.4 51.8C76.2413 52.4348 76.0511 53.038 75.867 53.6223C75.5869 54.5108 75.3206 55.3554 75.2 56.2C74.8 59.4 73 61.2 69.8 62C68.4 62.4 67.0001 63 65.6001 63.6L65.6 63.6C65 63.8 64.6 64.4 64.4 64.8C63.7 67.5 63.05 70.1501 62.4 72.8001C61.75 75.4501 61.1 78.1 60.4 80.8Z" fill="#C0C0C0"/>
<path d="M60.4 81.4C71.2 81.6 81.8 81.8 92.6 82.2001C92.2 83.8 91.8 85.2 91.6 86.6C91 88.6 90.4 90.4 90 92.4C89.8 93.4 89.4 93.6 88.4 93.6C75 93.6 61.8 93.6 48.4 93.6C44.6 93.6 40.8 93.6 36.8 93.6C38.6 86.6 40.4 80 42.2 73C39.4 74 37 75 34.2 76.2001C35 73.2001 35.8 70.6 36.8 67.8C36.8 67.4 37.4 67.2001 37.8 67.2001C39.6 66.4001 41.6 65.8 43.4 65C44 64.8 44.6 64.2 44.6 63.6C47.4 53.2 50.2 42.8 53 32.4C53.2 31.2 53.6 30.8 55 30.8C60.6 30.8 66.2 30.8 71.8 30.8C72.2 30.8 72.6 30.8 73.2 30.8C71 39 69 47.2 66.8 55.8C70 54.4 73 53.2001 76.4 52C76 53.6 75.4 55 75.2 56.4C74.8 59.6 73 61.4 69.8 62.2C68.4 62.6 67 63.2001 65.6 63.8C65.2 64 64.6 64.6 64.4 65C63 70.4001 61.6 75.6 60.4 81C60.4 81 60.4 81.2 60.4 81.4Z" fill="white"/>
</svg>
