<svg width="128" height="130" viewBox="0 0 128 130" fill="none" xmlns="http://www.w3.org/2000/svg">
<path d="M64 128.2C99.0149 128.2 127.4 99.8149 127.4 64.8C127.4 29.7852 99.0149 1.40002 64 1.40002C28.9852 1.40002 0.600006 29.7852 0.600006 64.8C0.600006 99.8149 28.9852 128.2 64 128.2Z" fill="#739BEE"/>
<path d="M81.4 71.5999C79.4 70.9999 77.4 70.7999 75.6 70.7999C73.8 70.9999 71.8 70.1999 70.8 68.5999L70.2 67.7999C69 65.9999 69 63.7999 70.2 61.9999L70.8 60.9999C71.8 59.5999 73.4 58.7999 75.2 58.7999C77.4 58.7999 79.6 58.3999 81.8 57.1999C87.2 54.3999 90.8 48.9999 90.6 42.9999C90.4 34.3999 83.2 27.5999 74.4 27.9999C67 28.3999 60.8 34.3999 60 41.7999C59.6 45.7999 60.8 49.3999 62.8 52.3999C64 54.1999 64 56.5999 62.8 58.3999L62.6 58.5999C61.6 59.9999 60 60.7999 58.4 60.7999H57.4C55.4 60.7999 53.6 59.5999 52.8 57.7999C50.2 52.5999 44.8 49.1999 38.6 49.3999C30.6 49.5999 24 56.1999 23.8 64.1999C23.4 72.9999 30.4 80.1999 39.2 80.1999C45.2 80.1999 50.4 76.7999 52.8 71.7999C53.6 69.9999 55.4 68.7999 57.4 68.7999H58.2C60 68.7999 61.6 69.5999 62.4 70.9999L63.4 72.3999C64.6 73.9999 64.4 76.1999 63.4 77.7999C61.6 80.5999 60.8 83.7999 61.2 87.3999C61.8 94.5999 67.8 100.4 74.8 101.2C84.6 102.2 92.6 93.9999 91.8 84.3999C91.4 78.5999 87.2 73.3999 81.4 71.5999Z" fill="#FEFEFE"/>
</svg>
