<svg width="14" height="9" viewBox="0 0 14 9" fill="none" xmlns="http://www.w3.org/2000/svg">
<path fill-rule="evenodd" clip-rule="evenodd" d="M11.1592 5.39852L8.98812 7.46371C8.64232 7.81555 8.64232 8.38427 8.98812 8.73611C9.33479 9.08796 9.89595 9.08796 10.2417 8.73611L13.6113 5.45431C13.8617 5.19875 14 4.8613 14 4.49955C14 4.1387 13.8617 3.79946 13.6113 3.54569L10.2417 0.263885C9.89595 -0.0879618 9.33479 -0.0879618 8.98812 0.263885C8.64232 0.614833 8.64232 1.18445 8.98812 1.53629L11.1575 3.59879H0.875438C0.392196 3.59879 0 4.00192 0 4.49865C0 4.99538 0.392196 5.39852 0.875438 5.39852H11.1592Z" fill="white"/>
</svg>
